<?xml version="1.0" encoding="UTF-8" standalone="no"?>
<!-- Generator: Adobe Illustrator 16.0.0, SVG Export Plug-In . SVG Version: 6.00 Build 0)  -->

<svg
   xmlns:dc="http://purl.org/dc/elements/1.1/"
   xmlns:cc="http://creativecommons.org/ns#"
   xmlns:rdf="http://www.w3.org/1999/02/22-rdf-syntax-ns#"
   xmlns:svg="http://www.w3.org/2000/svg"
   xmlns="http://www.w3.org/2000/svg"
   xmlns:sodipodi="http://sodipodi.sourceforge.net/DTD/sodipodi-0.dtd"
   xmlns:inkscape="http://www.inkscape.org/namespaces/inkscape"
   version="1.1"
   id="Capa_1"
   x="0px"
   y="0px"
   width="928px"
   height="928px"
   viewBox="0 0 928 928"
   style="enable-background:new 0 0 928 928;"
   xml:space="preserve"
   inkscape:version="0.91 r13725"
   sodipodi:docname="email106_inversed_color.svg"
   inkscape:export-filename="/Users/bebatut/Documents/sites/bebatut-research.github.io/assets/img/email106_inversed_color.png"
   inkscape:export-xdpi="3.8793104"
   inkscape:export-ydpi="3.8793104"><sodipodi:namedview
     pagecolor="#ffffff"
     bordercolor="#666666"
     borderopacity="1"
     objecttolerance="10"
     gridtolerance="10"
     guidetolerance="10"
     inkscape:pageopacity="1"
     inkscape:pageshadow="2"
     inkscape:window-width="1372"
     inkscape:window-height="842"
     id="namedview49"
     showgrid="false"
     inkscape:zoom="0.25431034"
     inkscape:cx="601.62711"
     inkscape:cy="306.71186"
     inkscape:window-x="23"
     inkscape:window-y="0"
     inkscape:window-maximized="0"
     inkscape:current-layer="Capa_1" /><metadata
     id="metadata53"><rdf:RDF><cc:Work
         rdf:about=""><dc:format>image/svg+xml</dc:format><dc:type
           rdf:resource="http://purl.org/dc/dcmitype/StillImage" /><dc:title></dc:title></cc:Work></rdf:RDF></metadata><defs
     id="defs51"><filter
       id="filter3030"
       inkscape:label="Moonarize"
       inkscape:menu="Color"
       inkscape:menu-tooltip="An effect between solarize and invert which often preserves sky and water lights"
       y="0"
       x="0"
       height="1"
       width="1"
       color-interpolation-filters="sRGB"><feColorMatrix
         id="feColorMatrix3032"
         type="hueRotate"
         values="180"
         result="fbSourceGraphic" /><feColorMatrix
         id="feColorMatrix3034"
         in="fbSourceGraphic"
         values="-1 0 0 0 1 0 -1 0 0 1 0 0 -1 0 1 0 0 0 1 0 "
         result="result3" /><feBlend
         id="feBlend3036"
         in2="result3"
         mode="lighten"
         in="fbSourceGraphic"
         result="result2" /><feBlend
         id="feBlend3038"
         in2="result2"
         mode="multiply"
         result="result1"
         in="result2" /><feComposite
         id="feComposite3040"
         in2="SourceGraphic"
         operator="in" /></filter></defs><path
     style=""
     inkscape:connector-curvature="0"
     id="path5"
     d="m 795.9,470.363 92,-62.5 c 13.5,-9.2 14.699,-28.601 2.5,-39.4 l -94.5,-83.5 0,185.4 z" /><path
     style=""
     inkscape:connector-curvature="0"
     id="path7"
     d="m 430.9,20.862 -51.9,45.9 170,0 -51.9,-45.9 c -18.9,-16.699 -47.3,-16.699 -66.2,0 z" /><path
     style="fill:#000000;fill-opacity:1"
     inkscape:connector-curvature="0"
     id="path9"
     d="m 40.2,407.863 92,62.5 0,-185.401 -94.5,83.5 c -12.3,10.8 -11,30.3 2.5,39.401 z" /><path
     style="fill:#000000;fill-opacity:1;fill-rule:evenodd"
     inkscape:connector-curvature="0"
     id="path11"
     d="m 640.9,617.963 244.699,236.4 c 15.9,15.3 42.4,4.1 42.4,-18 l 0,-366.2 c 0,-20.101 -22.5,-32 -39,-20.701 L 640.9,617.963 Z" /><path
     style="fill:#000000;fill-opacity:1;fill-rule:evenodd"
     inkscape:connector-curvature="0"
     id="path13"
     d="M 42.4,854.363 287.1,617.963 39,449.462 c -16.6,-11.3 -39,0.6 -39,20.701 l 0,366.2 c 0,22.1 26.5,33.3 42.4,18 z" /><path
     style="fill-opacity:1;fill:#000000;fill-rule:evenodd"
     inkscape:connector-curvature="0"
     id="path15"
     d="m 858.3,876.663 -247,-238.601 -109.4,74.301 c -11.5,7.8 -24.7,11.699 -37.9,11.699 -13.2,0 -26.4,-3.899 -37.9,-11.699 L 316.7,638.062 69.7,876.663 c -16.2,15.6 -5.1,43 17.4,43 l 753.9,0 c 22.4,-0.101 33.5,-27.4 17.3,-43 z" /><path
     style=""
     inkscape:connector-curvature="0"
     id="path17"
     d="m 345,96.762 -132.9,0 c -27.6,0 -50,22.4 -50,50 l 0,109.1 0,2.6 0,232.3 0,0 271.7,188.5 c 8.9,6.7 19.5,10.101 30.101,10.101 10.6,0 21.199,-3.4 30.1,-10.101 l 271.7,-188.5 0,-232.3 0,-2.6 0,-109.1 c 0,-27.6 -22.4,-50 -50,-50 l -132.701,0 -23.4,0 -191.2,0 -23.4,0 z m -49,339.7 c 0,-8.3 6.7,-15 15,-15 l 306,0 c 8.3,0 15,6.7 15,15 0,8.3 -6.7,15 -15,15 l -306,0 c -8.3,0 -15,-6.7 -15,-15 z m 321,-152.5 c 8.3,0 15,6.7 15,15 0,8.3 -6.7,15 -15,15 l -306,0 c -8.3,0 -15,-6.7 -15,-15 0,-8.3 6.7,-15 15,-15 l 306,0 z" /><g
     id="g19" /><g
     id="g21" /><g
     id="g23" /><g
     id="g25" /><g
     id="g27" /><g
     id="g29" /><g
     id="g31" /><g
     id="g33" /><g
     id="g35" /><g
     id="g37" /><g
     id="g39" /><g
     id="g41" /><g
     id="g43" /><g
     id="g45" /><g
     id="g47" /></svg>