<?xml version="1.0" encoding="UTF-8" standalone="no"?>
<!-- Generator: Adobe Illustrator 16.0.0, SVG Export Plug-In . SVG Version: 6.00 Build 0)  -->

<svg
   xmlns:dc="http://purl.org/dc/elements/1.1/"
   xmlns:cc="http://creativecommons.org/ns#"
   xmlns:rdf="http://www.w3.org/1999/02/22-rdf-syntax-ns#"
   xmlns:svg="http://www.w3.org/2000/svg"
   xmlns="http://www.w3.org/2000/svg"
   xmlns:sodipodi="http://sodipodi.sourceforge.net/DTD/sodipodi-0.dtd"
   xmlns:inkscape="http://www.inkscape.org/namespaces/inkscape"
   version="1.1"
   id="Capa_1"
   x="0px"
   y="0px"
   width="430.117px"
   height="430.118px"
   viewBox="0 0 430.117 430.118"
   style="enable-background:new 0 0 430.117 430.118;"
   xml:space="preserve"
   inkscape:version="0.91 r13725"
   sodipodi:docname="linkedin12_inversed_color.svg"
   inkscape:export-filename="/Users/bebatut/Documents/sites/bebatut-research.github.io/assets/img/linkedin12_inversed_color.png"
   inkscape:export-xdpi="8.3697958"
   inkscape:export-ydpi="8.3697958"><metadata
     id="metadata40"><rdf:RDF><cc:Work
         rdf:about=""><dc:format>image/svg+xml</dc:format><dc:type
           rdf:resource="http://purl.org/dc/dcmitype/StillImage" /><dc:title></dc:title></cc:Work></rdf:RDF></metadata><defs
     id="defs38"><filter
       id="filter3017"
       inkscape:label="Moonarize"
       inkscape:menu="Color"
       inkscape:menu-tooltip="An effect between solarize and invert which often preserves sky and water lights"
       y="0"
       x="0"
       height="1"
       width="1"
       color-interpolation-filters="sRGB"><feColorMatrix
         id="feColorMatrix3019"
         type="hueRotate"
         values="180"
         result="fbSourceGraphic" /><feColorMatrix
         id="feColorMatrix3021"
         in="fbSourceGraphic"
         values="-1 0 0 0 1 0 -1 0 0 1 0 0 -1 0 1 0 0 0 1 0 "
         result="result3" /><feBlend
         id="feBlend3023"
         in2="result3"
         mode="lighten"
         in="fbSourceGraphic"
         result="result2" /><feBlend
         id="feBlend3025"
         in2="result2"
         mode="multiply"
         result="result1"
         in="result2" /><feComposite
         id="feComposite3027"
         in2="SourceGraphic"
         operator="in" /></filter></defs><sodipodi:namedview
     pagecolor="#ffffff"
     bordercolor="#666666"
     borderopacity="1"
     objecttolerance="10"
     gridtolerance="10"
     guidetolerance="10"
     inkscape:pageopacity="1"
     inkscape:pageshadow="2"
     inkscape:window-width="1443"
     inkscape:window-height="837"
     id="namedview36"
     showgrid="false"
     inkscape:zoom="0.54868662"
     inkscape:cx="-75.635666"
     inkscape:cy="215.05901"
     inkscape:window-x="0"
     inkscape:window-y="23"
     inkscape:window-maximized="0"
     inkscape:current-layer="Capa_1" /><path
     style="fill:#000000;fill-opacity:1"
     inkscape:connector-curvature="0"
     d="M 398.355,0 31.782,0 C 14.229,0 0.002,13.793 0.002,30.817 l 0,368.471 c 0,17.025 14.232,30.83 31.78,30.83 l 366.573,0 c 17.549,0 31.76,-13.814 31.76,-30.83 l 0,-368.471 C 430.115,13.798 415.904,0 398.355,0 Z M 130.4,360.038 l -64.987,0 0,-194.193 64.987,0 0,194.193 z m -32.487,-220.723 -0.437,0 c -21.793,0 -35.92,-14.904 -35.92,-33.563 0,-19.035 14.542,-33.535 36.767,-33.535 22.227,0 35.899,14.496 36.331,33.535 0,18.663 -14.099,33.563 -36.741,33.563 z m 266.746,220.723 -64.966,0 0,-103.9 c 0,-26.107 -9.413,-43.921 -32.907,-43.921 -17.973,0 -28.642,12.018 -33.327,23.621 -1.736,4.144 -2.166,9.94 -2.166,15.728 l 0,108.468 -64.954,0 c 0,0 0.85,-175.979 0,-194.192 l 64.964,0 0,27.531 c 8.624,-13.229 24.035,-32.1 58.534,-32.1 42.76,0 74.822,27.739 74.822,87.414 l 0,111.351 z M 230.883,193.99 c 0.111,-0.182 0.266,-0.401 0.42,-0.614 l 0,0.614 -0.42,0 z"
     id="LinkedIn__x28_alt_x29_" /><g
     id="g6" /><g
     id="g8" /><g
     id="g10" /><g
     id="g12" /><g
     id="g14" /><g
     id="g16" /><g
     id="g18" /><g
     id="g20" /><g
     id="g22" /><g
     id="g24" /><g
     id="g26" /><g
     id="g28" /><g
     id="g30" /><g
     id="g32" /><g
     id="g34" /></svg>