<?xml version="1.0" encoding="UTF-8" standalone="no"?>
<!-- Generator: Adobe Illustrator 16.0.0, SVG Export Plug-In . SVG Version: 6.00 Build 0)  -->

<svg
   xmlns:dc="http://purl.org/dc/elements/1.1/"
   xmlns:cc="http://creativecommons.org/ns#"
   xmlns:rdf="http://www.w3.org/1999/02/22-rdf-syntax-ns#"
   xmlns:svg="http://www.w3.org/2000/svg"
   xmlns="http://www.w3.org/2000/svg"
   xmlns:sodipodi="http://sodipodi.sourceforge.net/DTD/sodipodi-0.dtd"
   xmlns:inkscape="http://www.inkscape.org/namespaces/inkscape"
   version="1.1"
   id="Capa_1"
   x="0px"
   y="0px"
   width="430.117px"
   height="430.118px"
   viewBox="0 0 430.117 430.118"
   style="enable-background:new 0 0 430.117 430.118;"
   xml:space="preserve"
   inkscape:version="0.48.2 r9819"
   sodipodi:docname="linkedin12.svg"><metadata
   id="metadata40"><rdf:RDF><cc:Work
       rdf:about=""><dc:format>image/svg+xml</dc:format><dc:type
         rdf:resource="http://purl.org/dc/dcmitype/StillImage" /></cc:Work></rdf:RDF></metadata><defs
   id="defs38"><filter
     id="filter3017"
     inkscape:label="Moonarize"
     inkscape:menu="Color"
     inkscape:menu-tooltip="An effect between solarize and invert which often preserves sky and water lights"
     y="0"
     x="0"
     height="1"
     width="1"
     color-interpolation-filters="sRGB"><feColorMatrix
       id="feColorMatrix3019"
       type="hueRotate"
       values="180"
       result="fbSourceGraphic" /><feColorMatrix
       id="feColorMatrix3021"
       in="fbSourceGraphic"
       values="-1 0 0 0 1 0 -1 0 0 1 0 0 -1 0 1 0 0 0 1 0 "
       result="result3" /><feBlend
       id="feBlend3023"
       in2="result3"
       mode="lighten"
       in="fbSourceGraphic"
       result="result2" /><feBlend
       id="feBlend3025"
       in2="result2"
       mode="multiply"
       result="result1"
       in="result2" /><feComposite
       id="feComposite3027"
       in2="SourceGraphic"
       operator="in" /></filter></defs><sodipodi:namedview
   pagecolor="#000000"
   bordercolor="#666666"
   borderopacity="1"
   objecttolerance="10"
   gridtolerance="10"
   guidetolerance="10"
   inkscape:pageopacity="1"
   inkscape:pageshadow="2"
   inkscape:window-width="1025"
   inkscape:window-height="737"
   id="namedview36"
   showgrid="false"
   inkscape:zoom="0.54868662"
   inkscape:cx="215.0585"
   inkscape:cy="215.05901"
   inkscape:window-x="0"
   inkscape:window-y="0"
   inkscape:window-maximized="0"
   inkscape:current-layer="Capa_1" />
<g
   id="g3"
   style="filter:url(#filter3017)">
	<path
   id="LinkedIn__x28_alt_x29_"
   d="M398.355,0H31.782C14.229,0,0.002,13.793,0.002,30.817v368.471   c0,17.025,14.232,30.83,31.78,30.83h366.573c17.549,0,31.76-13.814,31.76-30.83V30.817C430.115,13.798,415.904,0,398.355,0z    M130.4,360.038H65.413V165.845H130.4V360.038z M97.913,139.315h-0.437c-21.793,0-35.92-14.904-35.92-33.563   c0-19.035,14.542-33.535,36.767-33.535c22.227,0,35.899,14.496,36.331,33.535C134.654,124.415,120.555,139.315,97.913,139.315z    M364.659,360.038h-64.966V256.138c0-26.107-9.413-43.921-32.907-43.921c-17.973,0-28.642,12.018-33.327,23.621   c-1.736,4.144-2.166,9.94-2.166,15.728v108.468h-64.954c0,0,0.85-175.979,0-194.192h64.964v27.531   c8.624-13.229,24.035-32.1,58.534-32.1c42.76,0,74.822,27.739,74.822,87.414V360.038z M230.883,193.99   c0.111-0.182,0.266-0.401,0.42-0.614v0.614H230.883z" />
</g>
<g
   id="g6">
</g>
<g
   id="g8">
</g>
<g
   id="g10">
</g>
<g
   id="g12">
</g>
<g
   id="g14">
</g>
<g
   id="g16">
</g>
<g
   id="g18">
</g>
<g
   id="g20">
</g>
<g
   id="g22">
</g>
<g
   id="g24">
</g>
<g
   id="g26">
</g>
<g
   id="g28">
</g>
<g
   id="g30">
</g>
<g
   id="g32">
</g>
<g
   id="g34">
</g>
</svg>