<?xml version="1.0" encoding="UTF-8" standalone="no"?>
<!-- Generator: Adobe Illustrator 16.0.0, SVG Export Plug-In . SVG Version: 6.00 Build 0)  -->

<svg
   xmlns:dc="http://purl.org/dc/elements/1.1/"
   xmlns:cc="http://creativecommons.org/ns#"
   xmlns:rdf="http://www.w3.org/1999/02/22-rdf-syntax-ns#"
   xmlns:svg="http://www.w3.org/2000/svg"
   xmlns="http://www.w3.org/2000/svg"
   xmlns:sodipodi="http://sodipodi.sourceforge.net/DTD/sodipodi-0.dtd"
   xmlns:inkscape="http://www.inkscape.org/namespaces/inkscape"
   version="1.1"
   id="Capa_1"
   x="0px"
   y="0px"
   width="94px"
   height="94px"
   viewBox="0 0 94 94"
   style="enable-background:new 0 0 94 94;"
   xml:space="preserve"
   inkscape:version="0.91 r13725"
   sodipodi:docname="twitter39_inversed_color.svg"
   inkscape:export-filename="/Users/bebatut/Documents/sites/bebatut-research.github.io/assets/img/twitter39_inversed_color.png"
   inkscape:export-xdpi="38.297871"
   inkscape:export-ydpi="38.297871"><metadata
     id="metadata41"><rdf:RDF><cc:Work
         rdf:about=""><dc:format>image/svg+xml</dc:format><dc:type
           rdf:resource="http://purl.org/dc/dcmitype/StillImage" /><dc:title></dc:title></cc:Work></rdf:RDF></metadata><defs
     id="defs39"><filter
       id="filter2997"
       inkscape:label="Moonarize"
       inkscape:menu="Color"
       inkscape:menu-tooltip="An effect between solarize and invert which often preserves sky and water lights"
       y="0"
       x="0"
       height="1"
       width="1"
       color-interpolation-filters="sRGB"><feColorMatrix
         id="feColorMatrix2999"
         type="hueRotate"
         values="180"
         result="fbSourceGraphic" /><feColorMatrix
         id="feColorMatrix3001"
         in="fbSourceGraphic"
         values="-1 0 0 0 1 0 -1 0 0 1 0 0 -1 0 1 0 0 0 1 0 "
         result="result3" /><feBlend
         id="feBlend3003"
         in2="result3"
         mode="lighten"
         in="fbSourceGraphic"
         result="result2" /><feBlend
         id="feBlend3005"
         in2="result2"
         mode="multiply"
         result="result1"
         in="result2" /><feComposite
         id="feComposite3007"
         in2="SourceGraphic"
         operator="in" /></filter></defs><sodipodi:namedview
     pagecolor="#ffffff"
     bordercolor="#666666"
     borderopacity="1"
     objecttolerance="10"
     gridtolerance="10"
     guidetolerance="10"
     inkscape:pageopacity="1"
     inkscape:pageshadow="2"
     inkscape:window-width="1407"
     inkscape:window-height="825"
     id="namedview37"
     showgrid="false"
     inkscape:zoom="2.5106383"
     inkscape:cx="-16.529661"
     inkscape:cy="47"
     inkscape:window-x="0"
     inkscape:window-y="23"
     inkscape:window-maximized="0"
     inkscape:current-layer="Capa_1" /><path
     inkscape:connector-curvature="0"
     id="path5"
     d="M 89,0 H 5 C 2.239,0 0,2.239 0,5 v 84 c 0,2.761 2.239,5 5,5 h 84 c 2.762,0 5,-2.239 5,-5 V 5 C 94,2.239 91.762,0 89,0 z m -3.126,23.302 c -2.122,3.177 -4.752,5.922 -7.817,8.164 0.024,0.616 0.036,1.233 0.036,1.855 0,22.315 -16.979,45.396 -45.396,45.396 -8.687,0 -17.144,-2.479 -24.458,-7.169 -0.152,-0.097 -0.217,-0.286 -0.155,-0.456 0.061,-0.169 0.234,-0.273 0.409,-0.254 1.229,0.146 2.482,0.219 3.729,0.219 6.758,0 13.156,-2.089 18.567,-6.053 -6.487,-0.547 -12.062,-4.938 -14.068,-11.199 -0.041,-0.131 -0.011,-0.271 0.08,-0.375 0.09,-0.103 0.229,-0.146 0.362,-0.123 1.797,0.342 3.624,0.362 5.387,0.078 -6.69,-2.08 -11.393,-8.346 -11.393,-15.481 l 0.002,-0.208 c 0.003,-0.136 0.077,-0.26 0.193,-0.326 0.118,-0.068 0.264,-0.069 0.381,-0.003 1.743,0.968 3.677,1.591 5.655,1.828 -3.844,-3.064 -6.102,-7.709 -6.102,-12.678 0,-2.867 0.76,-5.686 2.194,-8.148 0.064,-0.109 0.178,-0.182 0.305,-0.19 0.127,-0.013 0.25,0.042 0.329,0.142 7.87,9.651 19.444,15.595 31.821,16.358 -0.208,-1.04 -0.312,-2.11 -0.312,-3.191 0,-8.936 7.271,-16.205 16.206,-16.205 4.396,0 8.639,1.806 11.681,4.96 3.432,-0.699 6.697,-1.96 9.715,-3.75 0.139,-0.082 0.312,-0.069 0.438,0.03 0.125,0.101 0.176,0.268 0.126,0.421 -1.021,3.199 -3.018,5.989 -5.696,8.004 2.523,-0.439 4.974,-1.182 7.302,-2.214 0.157,-0.072 0.342,-0.027 0.453,0.104 0.111,0.132 0.123,0.32 0.026,0.464 z"
     style="" /><g
     id="g7"
     style="" /><g
     id="g9"
     style="" /><g
     id="g11"
     style="" /><g
     id="g13"
     style="" /><g
     id="g15"
     style="" /><g
     id="g17"
     style="" /><g
     id="g19"
     style="" /><g
     id="g21"
     style="" /><g
     id="g23"
     style="" /><g
     id="g25"
     style="" /><g
     id="g27"
     style="" /><g
     id="g29"
     style="" /><g
     id="g31"
     style="" /><g
     id="g33"
     style="" /><g
     id="g35"
     style="" /></svg>