<?xml version="1.0" standalone="no"?>
<!DOCTYPE svg PUBLIC "-//W3C//DTD SVG 20010904//EN"
 "http://www.w3.org/TR/2001/REC-SVG-20010904/DTD/svg10.dtd">
<svg version="1.0" xmlns="http://www.w3.org/2000/svg"
 width="72.000000pt" height="71.000000pt" viewBox="0 0 72.000000 71.000000"
 preserveAspectRatio="xMidYMid meet">
<metadata>
Created by potrace 1.11, written by Peter Selinger 2001-2013
</metadata>
<g transform="translate(0.000000,71.000000) scale(0.100000,-0.100000)"
fill="#000000" stroke="none">
<path d="M4 685 c-11 -28 14 -90 50 -126 19 -19 63 -50 98 -68 87 -47 125 -77
136 -111 12 -33 -5 -74 -46 -106 l-26 -21 30 -16 c30 -15 32 -15 61 12 35 32
56 86 49 126 -11 60 -72 118 -184 176 -57 28 -96 69 -108 111 -11 37 -49 52
-60 23z"/>
<path d="M304 685 c-5 -12 -26 -15 -105 -15 -54 0 -99 -3 -99 -7 1 -22 22 -28
92 -28 96 0 104 -18 11 -25 -64 -5 -66 -6 -40 -17 15 -7 34 -13 42 -13 8 0 15
-4 15 -9 0 -5 12 -16 26 -26 25 -16 27 -16 51 7 33 30 66 103 58 128 -7 23
-43 27 -51 5z"/>
<path d="M427 686 c-19 -14 -23 -36 -7 -36 6 0 10 -14 10 -31 0 -47 24 -30 26
19 1 52 -6 64 -29 48z"/>
<path d="M482 688 c-7 -7 -12 -26 -12 -43 0 -50 33 -71 64 -39 15 14 15 62 0
86 -8 12 -38 10 -52 -4z m38 -37 c0 -28 -18 -55 -21 -32 -5 39 -1 61 11 61 6
0 10 -13 10 -29z"/>
<path d="M565 688 c-14 -44 -8 -86 15 -93 39 -13 64 38 44 89 -7 19 -53 21
-59 4z m40 -41 c0 -40 -19 -38 -23 2 -3 24 0 32 10 29 7 -3 13 -17 13 -31z"/>
<path d="M656 692 c-22 -36 -8 -102 22 -102 36 0 54 47 36 94 -6 17 -49 22
-58 8z m38 -28 c8 -21 -3 -56 -15 -49 -12 8 -12 65 0 65 5 0 12 -7 15 -16z"/>
<path d="M426 547 c-39 -29 -10 -127 31 -101 23 15 33 58 19 85 -14 28 -27 33
-50 16z m32 -49 c-3 -34 -20 -42 -26 -13 -5 22 5 45 18 45 7 0 10 -14 8 -32z"/>
<path d="M514 538 c-14 -15 -16 -22 -6 -25 6 -3 12 -18 12 -33 0 -26 18 -53
21 -33 5 29 3 105 -2 109 -3 2 -15 -6 -25 -18z"/>
<path d="M580 540 c-21 -39 -2 -100 30 -100 15 0 38 43 36 68 -4 43 -49 65
-66 32z m40 -41 c0 -20 -4 -29 -12 -26 -7 2 -13 9 -12 15 1 7 2 21 3 33 2 31
21 12 21 -22z"/>
<path d="M693 543 c-26 -17 -30 -33 -10 -33 9 0 14 -12 15 -31 0 -17 3 -34 6
-37 12 -12 17 8 14 61 -3 54 -3 54 -25 40z"/>
<path d="M63 475 c-32 -23 -63 -78 -63 -114 0 -76 49 -131 166 -186 51 -24 80
-48 53 -44 -31 4 -56 -2 -75 -16 -14 -11 -15 -15 -4 -14 8 1 44 1 78 0 45 -1
62 -5 60 -13 -3 -8 -32 -12 -89 -13 -68 0 -84 -3 -84 -15 0 -12 17 -15 94 -16
76 0 95 -4 103 -17 11 -20 47 -23 49 -4 7 55 -12 106 -53 144 -12 11 -61 41
-108 65 l-85 43 52 5 c29 3 58 11 65 18 14 14 14 14 -84 14 -51 1 -68 4 -68
14 0 11 21 14 95 14 78 0 95 3 95 15 0 12 -18 15 -100 15 -84 0 -98 2 -94 15
5 12 24 15 86 15 70 0 79 2 68 15 -8 10 -30 15 -63 15 -45 0 -49 2 -32 13 17
13 17 15 -6 30 -29 21 -29 21 -56 2z"/>
<path d="M435 390 c-16 -18 -16 -20 -1 -26 11 -4 14 -14 11 -35 -4 -21 -1 -29
10 -29 12 0 15 13 15 55 0 59 -7 66 -35 35z"/>
<path d="M517 396 c-18 -14 -25 -42 -7 -31 6 4 10 -8 10 -29 0 -23 5 -36 13
-36 10 0 13 15 13 49 -1 58 -5 64 -29 47z"/>
<path d="M582 398 c-7 -7 -12 -26 -12 -43 0 -35 15 -55 41 -55 21 0 30 12 34
48 6 51 -32 81 -63 50z m38 -43 c0 -35 -13 -47 -23 -21 -7 18 3 56 14 56 5 0
9 -16 9 -35z"/>
<path d="M687 392 c-21 -23 -22 -36 -2 -28 9 3 15 1 14 -7 -4 -29 2 -57 11
-57 6 0 10 25 10 55 0 58 -7 66 -33 37z"/>
<path d="M421 256 c-18 -21 -17 -75 1 -93 12 -12 20 -13 37 -4 30 17 32 76 3
99 -20 16 -27 15 -41 -2z m39 -46 c0 -20 -5 -30 -15 -30 -10 0 -15 10 -15 30
0 20 5 30 15 30 10 0 15 -10 15 -30z"/>
<path d="M514 249 c-14 -16 -15 -23 -6 -26 6 -3 12 -18 12 -34 0 -17 5 -29 13
-29 10 0 13 14 13 49 -1 60 -7 67 -32 40z"/>
<path d="M585 253 c-28 -28 -10 -103 25 -103 14 0 38 40 35 58 -2 9 -4 24 -4
33 -1 23 -38 31 -56 12z m35 -43 c0 -32 -14 -40 -24 -15 -6 18 2 45 15 45 5 0
9 -13 9 -30z"/>
<path d="M688 251 c-22 -21 -23 -35 -4 -28 11 4 14 -3 13 -29 -1 -18 3 -34 8
-34 6 0 11 25 13 55 3 58 -2 65 -30 36z"/>
<path d="M42 146 c-49 -56 -55 -141 -10 -134 15 2 25 16 34 46 7 26 25 54 44
70 l31 26 -23 13 c-34 19 -43 16 -76 -21z"/>
<path d="M438 106 c-20 -15 -24 -37 -6 -34 6 2 12 -9 12 -26 1 -16 7 -31 14
-34 9 -3 12 12 12 52 0 59 -4 64 -32 42z"/>
<path d="M492 103 c-17 -37 -2 -93 26 -93 27 0 42 20 42 55 0 17 -5 36 -12 43
-17 17 -46 15 -56 -5z m43 -34 c0 -37 -20 -38 -23 0 -2 23 0 32 9 29 7 -2 13
-15 14 -29z"/>
<path d="M595 100 c-16 -18 -14 -25 8 -21 4 0 7 -15 7 -34 0 -37 19 -50 21
-15 4 57 0 90 -9 90 -5 0 -17 -9 -27 -20z"/>
<path d="M687 102 c-21 -23 -22 -36 -1 -28 10 4 15 0 13 -12 -3 -33 1 -52 11
-52 6 0 10 25 10 55 0 58 -7 66 -33 37z"/>
</g>
</svg>
